<?xml version="1.0" standalone="no"?>
<!DOCTYPE svg PUBLIC "-//W3C//DTD SVG 20010904//EN"
 "http://www.w3.org/TR/2001/REC-SVG-20010904/DTD/svg10.dtd">
<svg version="1.0" xmlns="http://www.w3.org/2000/svg"
 width="1001.000000pt" height="1001.000000pt" viewBox="0 0 1001.000000 1001.000000"
 preserveAspectRatio="xMidYMid meet">
<metadata>
Created by potrace 1.11, written by Peter Selinger 2001-2013
</metadata>
<g transform="translate(0.000000,1001.000000) scale(0.100000,-0.100000)"
fill="#000000" stroke="none">
<path d="M4846 9790 c6 -6 42 -13 80 -16 108 -8 406 -52 531 -79 713 -154
1381 -485 1938 -960 195 -166 447 -430 611 -640 339 -433 608 -960 753 -1473
44 -154 89 -350 96 -415 6 -48 11 -80 21 -118 6 -26 6 -26 -72 -34 -47 -4 -82
-13 -89 -21 -6 -8 -41 -16 -92 -20 -76 -6 -83 -9 -83 -28 0 -17 -2 -18 -10 -6
-14 21 -13 10 7 -133 13 -92 17 -198 17 -437 1 -337 -10 -466 -60 -738 -228
-1243 -1027 -2304 -2159 -2869 -968 -484 -2085 -555 -3111 -200 -846 294
-1600 894 -2069 1648 -116 188 -209 365 -198 382 3 6 1 7 -5 3 -7 -4 -12 -1
-12 9 0 9 13 21 30 26 16 6 30 15 30 21 0 5 9 7 19 3 11 -3 22 -1 26 5 12 20
35 -10 30 -39 -5 -25 -5 -25 5 -3 7 17 6 29 -6 48 -9 13 -13 24 -9 24 4 0 0
11 -9 25 -9 14 -13 25 -8 25 8 0 71 -128 71 -144 -1 -5 3 -12 8 -15 9 -7 16
-18 75 -121 24 -41 42 -81 42 -88 -1 -7 1 -11 4 -8 3 3 43 -51 90 -122 475
-714 1160 -1243 1971 -1523 442 -152 900 -216 1411 -198 993 37 1948 482 2647
1234 86 92 100 112 88 121 -17 13 -21 39 -3 28 6 -4 8 -3 5 3 -4 6 0 41 9 79
30 139 36 210 31 374 -6 180 -23 277 -77 440 -93 278 -270 523 -513 710 -37
29 -67 56 -67 61 0 12 31 17 152 23 332 17 668 168 914 411 201 198 335 432
401 698 14 56 29 108 35 114 7 9 5 51 -6 135 -10 67 -18 124 -20 125 -1 1 -8
-46 -15 -105 -15 -130 -18 -146 -20 -104 -1 34 -20 44 -28 14 -2 -11 -22 -23
-49 -31 -24 -7 -44 -18 -44 -24 0 -5 -9 -2 -19 7 -15 13 -20 14 -24 4 -3 -7
-5 3 -5 22 1 19 3 39 6 44 2 4 7 63 9 131 19 492 -247 961 -673 1182 -180 94
-332 133 -544 140 -182 6 -287 -8 -447 -62 -222 -74 -379 -181 -567 -385 -286
-312 -390 -737 -281 -1150 31 -115 124 -308 197 -405 110 -146 257 -270 438
-367 36 -19 64 -40 63 -45 -1 -5 4 -10 12 -10 8 0 11 5 8 10 -4 7 1 7 13 3 10
-5 27 -11 37 -13 19 -6 22 -18 7 -28 -5 -3 -7 -11 -4 -18 7 -19 -42 -61 -61
-53 -25 9 -50 -9 -70 -53 -16 -36 -22 -41 -64 -47 -65 -9 -88 -20 -95 -42 -6
-17 -18 -19 -132 -20 -396 -4 -728 -159 -975 -454 -26 -31 -49 -56 -51 -55 -1
1 -2 0 -1 -1 4 -8 -60 -102 -69 -102 -6 0 -8 -6 -5 -14 3 -8 -1 -20 -8 -26 -8
-7 -13 -16 -10 -20 3 -5 1 -12 -5 -15 -6 -4 -9 -1 -8 6 2 7 -3 13 -9 14 -7 0
-13 3 -13 8 0 4 0 12 0 19 0 6 7 3 15 -8 8 -10 15 -17 15 -14 11 48 -3 51 -58
12 -18 -13 -40 -21 -47 -18 -8 3 -15 1 -15 -4 0 -6 -9 -10 -19 -10 -11 0 -23
-4 -26 -10 -3 -5 -19 -10 -35 -10 -16 0 -31 -4 -34 -8 -3 -5 -29 -14 -58 -20
-125 -25 -185 -36 -210 -36 -20 -1 -28 -6 -28 -19 0 -10 4 -15 10 -12 6 3 7
-1 3 -10 -5 -13 -7 -14 -14 -3 -5 7 -9 21 -9 31 0 9 -4 17 -9 17 -9 0 -25 33
-26 55 -1 10 -27 53 -103 169 -62 93 -181 217 -275 288 -147 109 -278 171
-457 216 -93 23 -125 26 -275 27 -237 0 -359 -29 -582 -140 -188 -93 -388
-250 -465 -366 -9 -13 -28 -37 -44 -54 -16 -16 -29 -33 -29 -37 0 -16 -23 -30
-30 -19 -3 6 -3 11 2 10 20 -3 27 2 13 11 -11 7 -11 10 -2 10 7 0 10 5 6 12
-4 7 -3 8 4 4 14 -9 15 4 2 24 -9 13 -10 13 -10 -1 0 -8 -7 -24 -15 -35 -14
-18 -16 -18 -26 -1 -5 9 -16 17 -24 17 -18 0 -47 29 -40 41 4 5 1 9 -5 9 -7 0
-9 -8 -4 -22 6 -20 5 -21 -8 -10 -13 11 -17 9 -22 -13 -4 -14 -11 -25 -16 -25
-31 0 125 222 235 334 106 107 122 120 245 194 91 55 100 63 65 56 -69 -14
-314 -8 -420 10 -665 112 -1196 710 -1199 1351 0 110 3 133 41 275 50 189 98
332 170 510 61 152 113 229 234 345 40 39 73 72 73 75 1 3 5 4 9 2 5 -1 6 2 2
8 -6 9 11 50 25 60 4 3 15 21 24 40 15 34 36 70 46 80 3 3 36 52 75 110 74
112 89 132 206 273 214 259 457 478 785 710 47 34 203 127 211 127 4 0 14 6
22 14 22 19 196 109 314 162 249 112 583 219 812 258 14 3 73 23 132 46 96 38
120 43 262 55 204 19 427 19 630 0 143 -13 175 -20 250 -49 47 -19 113 -37
146 -41 103 -11 352 -72 505 -123 103 -34 305 -109 327 -121 10 -6 50 -24 88
-42 85 -37 168 -79 215 -106 19 -11 69 -40 110 -63 158 -90 401 -258 519 -359
29 -25 57 -45 62 -43 5 1 8 -2 7 -6 -2 -4 21 -30 51 -56 113 -100 322 -320
413 -433 105 -132 242 -329 308 -443 24 -41 51 -84 60 -95 9 -11 23 -35 30
-52 14 -37 26 -42 33 -15 3 11 5 8 6 -9 1 -37 26 -56 48 -38 31 24 40 34 52
58 l13 24 16 -33 c9 -18 18 -28 20 -22 3 10 -133 281 -147 292 -3 3 -15 21
-25 40 -130 237 -383 552 -656 816 -532 515 -1228 878 -1968 1029 -284 57
-419 69 -792 69 -304 0 -365 -2 -510 -22 -274 -38 -603 -115 -630 -147 -10
-12 -10 -15 3 -15 8 0 17 5 19 12 3 8 9 8 24 -1 12 -8 13 -11 3 -8 -21 7 -39
-11 -39 -39 0 -13 -8 -30 -17 -40 -16 -16 -16 -16 7 -10 23 7 24 6 7 -8 -10
-8 -18 -23 -17 -33 4 -31 1 -36 -15 -23 -12 10 -15 10 -15 -1 0 -9 -47 -31
-123 -58 -271 -96 -575 -249 -822 -414 -176 -117 -310 -221 -487 -380 -43 -38
-78 -65 -78 -61 0 5 -5 2 -11 -6 -9 -13 -10 -12 -5 3 3 9 0 18 -7 19 -47 5
-74 20 -85 43 -8 18 -8 26 3 35 8 7 12 16 9 22 -3 5 -12 4 -20 -3 -7 -6 -11
-15 -8 -20 3 -5 -2 -9 -10 -9 -9 0 -16 -4 -16 -10 0 -5 7 -7 15 -4 8 4 15 1
15 -6 0 -6 -4 -8 -10 -5 -5 3 -10 1 -10 -5 0 -7 6 -10 13 -7 8 3 14 0 14 -7 0
-6 -8 -12 -18 -12 -10 0 -16 3 -14 6 7 11 -13 32 -24 26 -6 -4 -8 -12 -5 -18
4 -6 3 -8 -3 -5 -13 8 -56 -37 -46 -48 5 -4 3 -5 -3 -2 -7 4 -59 -48 -125
-124 -411 -472 -699 -1023 -854 -1634 -87 -342 -118 -594 -119 -970 -1 -311 9
-439 56 -710 17 -99 31 -192 30 -208 -1 -15 3 -27 9 -27 6 0 9 -10 7 -22 -3
-21 -11 -24 -80 -32 -43 -5 -78 -12 -78 -17 0 -4 -38 -10 -85 -14 l-85 -7 -1
-32 c-1 -21 -3 -25 -6 -11 -3 11 -10 26 -17 34 -12 15 -21 52 -61 251 -43 213
-74 509 -77 723 0 62 -4 94 -11 90 -14 -8 -2 -363 17 -528 65 -546 202 -1004
443 -1485 487 -974 1310 -1729 2323 -2130 1142 -453 2432 -407 3535 124 642
310 1197 764 1630 1333 0 2 12 -39 24 -90 59 -235 156 -478 253 -634 150 -242
405 -428 753 -550 153 -53 458 -118 588 -125 l49 -3 129 380 c71 209 129 394
129 410 l0 30 -222 0 c-242 0 -314 8 -495 56 -223 58 -414 163 -665 364 -124
99 -374 338 -383 365 -4 12 19 58 71 140 569 908 780 2068 573 3149 -260 1356
-1160 2529 -2407 3137 -445 217 -964 367 -1432 414 -214 21 -215 21 -204 10z
m2395 -1667 c13 -16 12 -17 -3 -4 -10 7 -18 15 -18 17 0 8 8 3 21 -13z m80
-80 c13 -16 12 -17 -3 -4 -10 7 -18 15 -18 17 0 8 8 3 21 -13z m-331 -718
c475 -78 870 -442 986 -909 33 -135 42 -331 21 -471 -39 -253 -159 -494 -335
-671 -66 -67 -151 -137 -215 -177 l-28 -18 8 28 c13 47 9 519 -5 628 -75 582
-316 1124 -693 1558 l-41 47 103 0 c57 0 147 -7 199 -15z m1560 -1410 c0 -5
-5 -3 -10 5 -5 8 -10 20 -10 25 0 6 5 3 10 -5 5 -8 10 -19 10 -25z m-283 -52
c-2 -16 -4 -5 -4 22 0 28 2 40 4 28 2 -13 2 -35 0 -50z m-144 -19 c10 14 12
11 14 -16 1 -26 0 -29 -7 -13 -6 13 -9 15 -9 5 -1 -13 -2 -13 -11 0 -5 8 -9
22 -9 30 1 10 3 9 6 -3 4 -17 6 -17 16 -3z m-1699 -893 c3 -5 -1 -11 -9 -14
-9 -4 -12 -1 -8 9 6 16 10 17 17 5z m51 -13 c5 4 5 1 1 -5 -10 -18 -23 -16
-30 3 -5 13 -4 14 7 6 8 -7 18 -8 22 -4z m-51 -23 c-4 -8 -11 -12 -16 -9 -6 4
-5 10 3 15 19 12 19 11 13 -6z m82 3 c4 -7 3 -8 -4 -4 -7 4 -12 2 -12 -5 0 -7
-3 -10 -6 -6 -6 5 3 27 11 27 2 0 7 -5 11 -12z m-326 -194 c0 -8 -19 -13 -24
-6 -3 5 1 9 9 9 8 0 15 -2 15 -3z m-60 -14 c0 -5 -4 -10 -10 -10 -5 0 -10 5
-10 10 0 6 5 10 10 10 6 0 10 -4 10 -10z m-5813 -432 c-3 -8 -6 -5 -6 6 -1 11
2 17 5 13 3 -3 4 -12 1 -19z m1602 -183 c0 -5 -4 -3 -9 5 -5 8 -9 22 -9 30 0
16 17 -16 18 -35z m41 -20 c0 -12 -19 -12 -23 0 -4 9 -1 12 9 8 7 -3 14 -7 14
-8z m52 -10 c0 -5 -5 -10 -11 -11 -8 -2 -7 -1 0 3 8 4 7 8 -2 15 -11 8 -11 9
-1 6 8 -2 14 -8 14 -13z m2815 -70 c0 -8 -4 -12 -9 -9 -5 3 -6 10 -3 15 9 13
12 11 12 -6z m-2731 -127 c335 -534 823 -941 1404 -1171 110 -44 315 -108 393
-122 20 -4 40 -11 42 -16 9 -14 -133 -108 -250 -165 -590 -289 -1310 -46
-1610 542 -52 101 -97 234 -116 344 -17 92 -17 322 -1 410 11 56 72 270 77
270 1 0 29 -42 61 -92z m5034 -83 c108 -423 -27 -886 -347 -1185 -368 -344
-908 -426 -1358 -206 -117 58 -259 151 -250 165 2 5 22 12 42 15 73 13 279 78
393 123 554 219 1037 611 1359 1104 42 64 82 126 90 139 13 23 14 23 32 -25
10 -27 28 -85 39 -130z m-6090 45 c0 -5 -5 -12 -12 -16 -7 -5 -8 -3 -4 5 5 7
0 19 -10 27 -18 14 -18 14 4 4 12 -6 22 -15 22 -20z m14 -85 c7 -19 -3 -45
-16 -45 -6 0 -4 7 3 17 11 13 11 17 2 20 -15 5 -18 23 -4 23 5 0 11 -7 15 -15z"/>
<path d="M4393 9080 c-285 -36 -532 -158 -739 -364 -245 -244 -367 -539 -367
-886 0 -345 123 -641 374 -905 317 -331 766 -457 1210 -340 445 119 822 536
916 1013 23 118 23 347 -1 465 -99 506 -487 895 -997 1001 -95 19 -301 28
-396 16z m350 -115 c451 -79 826 -403 961 -834 15 -46 24 -86 22 -88 -3 -3
-49 13 -103 35 -282 116 -594 183 -928 200 -389 20 -725 -26 -1090 -149 -66
-23 -148 -54 -182 -69 -35 -16 -63 -25 -63 -20 0 5 12 46 26 92 34 109 102
244 172 341 69 97 214 237 309 300 143 95 343 174 498 196 98 14 286 12 378
-4z"/>
<path d="M5921 8294 c0 -11 3 -14 6 -6 3 7 2 16 -1 19 -3 4 -6 -2 -5 -13z"/>
<path d="M5930 8269 c0 -2 5 -20 10 -39 92 -311 63 -714 -71 -994 -16 -33 -27
-61 -26 -63 8 -8 57 59 51 69 -4 6 -3 8 2 5 6 -3 23 33 38 81 16 48 33 98 37
112 40 121 57 443 30 580 -21 111 -53 235 -62 245 -5 5 -9 7 -9 4z"/>
<path d="M1870 8175 c-7 -9 -11 -18 -8 -20 3 -3 11 1 18 10 7 9 11 18 8 20 -3
3 -11 -1 -18 -10z"/>
<path d="M2020 7385 c-518 -87 -920 -480 -1031 -1008 -28 -131 -30 -341 -5
-469 88 -454 413 -827 847 -968 248 -81 537 -81 789 1 416 136 716 425 838
809 46 143 56 211 56 370 0 346 -111 613 -365 875 -169 174 -335 281 -536 345
-180 58 -414 75 -593 45z m333 -102 c-366 -429 -587 -915 -675 -1483 -18 -121
-22 -188 -22 -405 -1 -143 3 -273 7 -288 8 -28 6 -28 -67 23 -147 102 -288
262 -371 422 -94 181 -132 322 -142 523 -17 367 118 692 396 949 75 71 153
125 251 175 187 96 354 138 558 140 l114 1 -49 -57z"/>
<path d="M8081 7143 c-9 -21 -10 -25 -1 -16 7 6 18 9 25 6 10 -3 12 2 8 16 -7
28 -17 26 -32 -6z"/>
<path d="M7954 7103 c24 -44 75 -100 76 -83 0 13 1 13 10 0 7 -11 10 -11 10
-2 0 8 5 10 13 6 9 -6 8 -3 -1 8 -8 9 -20 14 -27 12 -14 -6 -47 46 -43 67 2 6
-3 14 -11 17 -9 3 -11 0 -6 -8 6 -9 3 -9 -14 0 -22 11 -22 11 -7 -17z"/>
<path d="M3955 6290 c-17 -5 -46 -26 -65 -45 -33 -34 -35 -41 -35 -100 0 -59
2 -66 35 -100 78 -81 203 -60 246 42 49 116 -61 239 -181 203z"/>
<path d="M5046 6290 c-67 -21 -115 -104 -100 -173 16 -74 72 -117 151 -117 85
0 143 58 143 143 0 57 -19 98 -58 126 -35 24 -96 34 -136 21z"/>
<path d="M8275 6050 c3 -5 8 -10 11 -10 2 0 4 5 4 10 0 6 -5 10 -11 10 -5 0
-7 -4 -4 -10z"/>
<path d="M8270 6010 c0 -5 5 -10 11 -10 5 0 7 5 4 10 -3 6 -8 10 -11 10 -2 0
-4 -4 -4 -10z"/>
<path d="M4450 5990 c-300 -48 -528 -332 -506 -630 6 -86 38 -201 64 -226 16
-17 17 -17 20 4 2 12 8 22 13 22 5 0 7 -12 3 -27 -6 -26 -5 -26 8 -10 13 17
16 15 46 -32 93 -142 269 -235 447 -235 242 0 452 160 520 398 14 46 16 81 11
170 -7 135 -8 146 -17 146 -4 0 -9 8 -12 18 -2 9 -8 26 -13 36 -4 12 -4 17 3
13 5 -3 17 2 25 12 15 17 14 23 -13 69 -61 107 -200 214 -329 252 -79 23 -195
32 -270 20z m600 -332 c0 -4 -6 -8 -14 -8 -8 0 -17 4 -20 8 -2 4 4 8 15 8 10
0 19 -4 19 -8z"/>
<path d="M130 5504 c0 -8 5 -12 10 -9 6 3 10 10 10 16 0 5 -4 9 -10 9 -5 0
-10 -7 -10 -16z"/>
<path d="M131 5464 c0 -11 3 -14 6 -6 3 7 2 16 -1 19 -3 4 -6 -2 -5 -13z"/>
<path d="M3592 5243 c-70 -34 -102 -132 -65 -203 72 -139 283 -87 283 71 0
110 -118 182 -218 132z"/>
<path d="M5375 5246 c-86 -39 -122 -144 -73 -215 37 -55 69 -73 128 -73 59 0
91 18 128 73 19 28 23 44 20 85 -5 61 -29 97 -84 124 -47 23 -77 25 -119 6z"/>
<path d="M4448 4572 c-37 -35 -42 -45 -45 -93 -6 -73 18 -116 80 -147 56 -29
112 -23 158 15 114 96 52 263 -98 263 -49 0 -58 -4 -95 -38z"/>
<path d="M286 4395 c-9 -26 -7 -32 5 -12 6 10 9 21 6 23 -2 3 -7 -2 -11 -11z"/>
<path d="M4886 4163 c-6 -14 -5 -15 5 -6 7 7 10 15 7 18 -3 3 -9 -2 -12 -12z"/>
<path d="M2046 4157 c3 -10 9 -15 12 -12 3 3 0 11 -7 18 -10 9 -11 8 -5 -6z"/>
<path d="M4568 4013 c6 -2 18 -2 25 0 6 3 1 5 -13 5 -14 0 -19 -2 -12 -5z"/>
<path d="M4300 3979 c0 -5 -6 -7 -12 -3 -7 4 -9 3 -5 -1 13 -15 36 -14 30 1
-6 17 -13 18 -13 3z"/>
<path d="M1125 3569 c-4 -6 -5 -12 -2 -15 2 -3 7 2 10 11 7 17 1 20 -8 4z"/>
<path d="M7492 2954 c-7 -8 -8 -14 -3 -14 10 0 25 19 20 25 -2 1 -10 -3 -17
-11z"/>
<path d="M3800 649 c-198 -9 -585 -40 -740 -60 -41 -5 -109 -19 -150 -31 -112
-32 -123 -46 -62 -77 49 -25 241 -60 405 -75 27 -3 72 -7 100 -11 261 -29
1096 -47 1591 -35 850 21 1346 77 1346 152 0 21 -97 54 -200 68 -41 5 -100 14
-130 19 -70 13 -421 38 -705 51 -257 12 -1158 11 -1455 -1z"/>
</g>
</svg>
